<svg width="57" height="21" viewBox="0 0 57 21" fill="none" xmlns="http://www.w3.org/2000/svg" xmlns:c2pa="http://c2pa.org/manifest"><metadata><c2pa:manifest>AAAWgmp1bWIAAAAeanVtZGMycGEAEQAQgAAAqgA4m3EDYzJwYQAAABZcanVtYgAAAEdqdW1kYzJtYQARABCAAACqADibcQN1cm46YzJwYTozY2E2OTk1ZC0xYjIzLTQ0YjgtOGZmZS01ODliMmJmZGZkNmMAAAADl2p1bWIAAAApanVtZGMyYXMAEQAQgAAAqgA4m3EDYzJwYS5hc3NlcnRpb25zAAAAALxqdW1iAAAARGp1bWRjYm9yABEAEIAAAKoAOJtxE2MycGEuaW5ncmVkaWVudC52MwAAAAAYYzJzaBgp4uxmBt09gjyU8umgJ6kAAABwY2JvcqNpZGM6Zm9ybWF0bWltYWdlL3N2Zyt4bWxqaW5zdGFuY2VJRHgseG1wOmlpZDozYzhhNjg1NS03Yjc5LTRkYjgtOTZmMC0wODc1YzJlYmNiOWJscmVsYXRpb25zaGlwaHBhcmVudE9mAAAB4mp1bWIAAABBanVtZGNib3IAEQAQgAAAqgA4m3ETYzJwYS5hY3Rpb25zLnYyAAAAABhjMnNoxayXZpRSuKzQ6YVQbfpGtAAAAZljYm9yomdhY3Rpb25zgqJmYWN0aW9ua2MycGEub3BlbmVkanBhcmFtZXRlcnOha2luZ3JlZGllbnRzgaJjdXJseC1zZWxmI2p1bWJmPWMycGEuYXNzZXJ0aW9ucy9jMnBhLmluZ3JlZGllbnQudjNkaGFzaFggctMyuDbLc1zSNk74ykXrpu/HejXa2iuCdjH4mKF19DKkZmFjdGlvbngdY29tLmFudGhyb3BpYy5jbGF1ZGUucHJvdmlkZWRqcGFyYW1ldGVyc6F4H2NvbS5hbnRocm9waWMub3JpZ2luLWNvbmZpZGVuY2VndW5rbm93bmtkZXNjcmlwdGlvbnhmQ2xhdWRlIHByb3ZpZGVkIHRoaXMgZmlsZSBhdCB0aGUgcmVxdWVzdCBvZiBhIHVzZXIgYW5kIG1heSBoYXZlIGNyZWF0ZWQgb3IgbW9kaWZpZWQgdGhlIGZpbGUgY29udGVudHMubXNvZnR3YXJlQWdlbnShZG5hbWVmQ2xhdWRlcmFsbEFjdGlvbnNJbmNsdWRlZPUAAADIanVtYgAAAEBqdW1kY2JvcgARABCAAACqADibcRNjMnBhLmhhc2guZGF0YQAAAAAYYzJzaJe049i9/0TBEoG9ly9ArAEAAACAY2JvcqVjYWxnZnNoYTI1NmNwYWRNAAAAAAAAAAAAAAAAAGRoYXNoWCDmvl8MjaFi2LvObvI7DbSmpYR4bm/N7b4bq+ZM+u0i5GRuYW1lbmp1bWJmIG1hbmlmZXN0amV4Y2x1c2lvbnOBomVzdGFydBieZmxlbmd0aBkeBAAAAj5qdW1iAAAAJ2p1bWRjMmNsABEAEIAAAKoAOJtxA2MycGEuY2xhaW0udjIAAAACD2Nib3KlY2FsZ2ZzaGEyNTZpc2lnbmF0dXJleE1zZWxmI2p1bWJmPS9jMnBhL3VybjpjMnBhOjNjYTY5OTVkLTFiMjMtNDRiOC04ZmZlLTU4OWIyYmZkZmQ2Yy9jMnBhLnNpZ25hdHVyZWppbnN0YW5jZUlEeCx4bXA6aWlkOmY4NWI3MWMxLWYzM2ItNGVkNy05MmVhLTJmMzY1YjY1N2ZmMXJjcmVhdGVkX2Fzc2VydGlvbnODomN1cmx4LXNlbGYjanVtYmY9YzJwYS5hc3NlcnRpb25zL2MycGEuaW5ncmVkaWVudC52M2RoYXNoWCBy0zK4NstzXNI2TvjKReum78d6NdraK4J2MfiYoXX0MqJjdXJseCpzZWxmI2p1bWJmPWMycGEuYXNzZXJ0aW9ucy9jMnBhLmFjdGlvbnMudjJkaGFzaFggmSj1dO+WNZgK7Wxzx2MVPqFNoORWlzyUiM6B1FrPTzOiY3VybHgpc2VsZiNqdW1iZj1jMnBhLmFzc2VydGlvbnMvYzJwYS5oYXNoLmRhdGFkaGFzaFggNJrvLiX571W1jf7/Bj0Kh+fuU9dCKJz7EyS1Ng4u75x0Y2xhaW1fZ2VuZXJhdG9yX2luZm+jZG5hbWVvQW50aHJvcGljIEZpbGVzZ3ZlcnNpb25lMS4wLjBrc3BlY1ZlcnNpb25lMi40LjAAABA4anVtYgAAAChqdW1kYzJjcwARABCAAACqADibcQNjMnBhLnNpZ25hdHVyZQAAABAIY2JvctKEWQISogEmGCFZAgowggIGMIIBjaADAgECAhRA5aAK7sI50L64g/oGQgU9Z1UTADAKBggqhkjOPQQDAzBJMRcwFQYDVQQKEw5BbnRocm9waWMsIFBCQzEuMCwGA1UEAxMlQW50aHJvcGljIENvbnRlbnQgQ3JlZGVudGlhbHMgUm9vdCBDQTAeFw0yNjA4MDcxODQzNTZaFw0yODA4MDYxOTQzNTZaMEQxFzAVBgNVBAoTDkFudGhyb3BpYywgUEJDMSkwJwYDVQQDEyBBbnRocm9waWMgQ2xhdWRlIENvbnRlbnQgU2lnbmluZzBZMBMGByqGSM49AgEGCCqGSM49AwEHA0IABJh6CmvLUBgFFNU0vUKlOVtE6djd17L5SuwX0LemFisBM3dkd/3cyjxFA3Qo5S46fX0/ihY0VZ7mfb9KF703t5OjWDBWMA4GA1UdDwEB/wQEAwIHgDAVBgNVHSUEDjAMBgorBgEEAYPoXgIBMAwGA1UdEwEB/wQCMAAwHwYDVR0jBBgwFoAUzlHiBIFOZFsj+OPEz5o+nMHXXMIwCgYIKoZIzj0EAwMDZwAwZAIwMXMdFJ4BetLLVY7ORuE9noqbbAZOZn/aArXyTwFAZfKrPzxF2vPoJNf1+UCdg1XGAjBwX1zd9WGqYkqmL5SFqw1QySjr1zJfpJM9+1rdDwSPLMOPOjKuiXjoU/pUUeG9RwmhY3BhZFkNngAAAAAAAAAAAAAAAAAAAAAAAAAAAAAAAAAAAAAAAAAAAAAAAAAAAAAAAAAAAAAAAAAAAAAAAAAAAAAAAAAAAAAAAAAAAAAAAAAAAAAAAAAAAAAAAAAAAAAAAAAAAAAAAAAAAAAAAAAAAAAAAAAAAAAAAAAAAAAAAAAAAAAAAAAAAAAAAAAAAAAAAAAAAAAAAAAAAAAAAAAAAAAAAAAAAAAAAAAAAAAAAAAAAAAAAAAAAAAAAAAAAAAAAAAAAAAAAAAAAAAAAAAAAAAAAAAAAAAAAAAAAAAAAAAAAAAAAAAAAAAAAAAAAAAAAAAAAAAAAAAAAAAAAAAAAAAAAAAAAAAAAAAAAAAAAAAAAAAAAAAAAAAAAAAAAAAAAAAAAAAAAAAAAAAAAAAAAAAAAAAAAAAAAAAAAAAAAAAAAAAAAAAAAAAAAAAAAAAAAAAAAAAAAAAAAAAAAAAAAAAAAAAAAAAAAAAAAAAAAAAAAAAAAAAAAAAAAAAAAAAAAAAAAAAAAAAAAAAAAAAAAAAAAAAAAAAAAAAAAAAAAAAAAAAAAAAAAAAAAAAAAAAAAAAAAAAAAAAAAAAAAAAAAAAAAAAAAAAAAAAAAAAAAAAAAAAAAAAAAAAAAAAAAAAAAAAAAAAAAAAAAAAAAAAAAAAAAAAAAAAAAAAAAAAAAAAAAAAAAAAAAAAAAAAAAAAAAAAAAAAAAAAAAAAAAAAAAAAAAAAAAAAAAAAAAAAAAAAAAAAAAAAAAAAAAAAAAAAAAAAAAAAAAAAAAAAAAAAAAAAAAAAAAAAAAAAAAAAAAAAAAAAAAAAAAAAAAAAAAAAAAAAAAAAAAAAAAAAAAAAAAAAAAAAAAAAAAAAAAAAAAAAAAAAAAAAAAAAAAAAAAAAAAAAAAAAAAAAAAAAAAAAAAAAAAAAAAAAAAAAAAAAAAAAAAAAAAAAAAAAAAAAAAAAAAAAAAAAAAAAAAAAAAAAAAAAAAAAAAAAAAAAAAAAAAAAAAAAAAAAAAAAAAAAAAAAAAAAAAAAAAAAAAAAAAAAAAAAAAAAAAAAAAAAAAAAAAAAAAAAAAAAAAAAAAAAAAAAAAAAAAAAAAAAAAAAAAAAAAAAAAAAAAAAAAAAAAAAAAAAAAAAAAAAAAAAAAAAAAAAAAAAAAAAAAAAAAAAAAAAAAAAAAAAAAAAAAAAAAAAAAAAAAAAAAAAAAAAAAAAAAAAAAAAAAAAAAAAAAAAAAAAAAAAAAAAAAAAAAAAAAAAAAAAAAAAAAAAAAAAAAAAAAAAAAAAAAAAAAAAAAAAAAAAAAAAAAAAAAAAAAAAAAAAAAAAAAAAAAAAAAAAAAAAAAAAAAAAAAAAAAAAAAAAAAAAAAAAAAAAAAAAAAAAAAAAAAAAAAAAAAAAAAAAAAAAAAAAAAAAAAAAAAAAAAAAAAAAAAAAAAAAAAAAAAAAAAAAAAAAAAAAAAAAAAAAAAAAAAAAAAAAAAAAAAAAAAAAAAAAAAAAAAAAAAAAAAAAAAAAAAAAAAAAAAAAAAAAAAAAAAAAAAAAAAAAAAAAAAAAAAAAAAAAAAAAAAAAAAAAAAAAAAAAAAAAAAAAAAAAAAAAAAAAAAAAAAAAAAAAAAAAAAAAAAAAAAAAAAAAAAAAAAAAAAAAAAAAAAAAAAAAAAAAAAAAAAAAAAAAAAAAAAAAAAAAAAAAAAAAAAAAAAAAAAAAAAAAAAAAAAAAAAAAAAAAAAAAAAAAAAAAAAAAAAAAAAAAAAAAAAAAAAAAAAAAAAAAAAAAAAAAAAAAAAAAAAAAAAAAAAAAAAAAAAAAAAAAAAAAAAAAAAAAAAAAAAAAAAAAAAAAAAAAAAAAAAAAAAAAAAAAAAAAAAAAAAAAAAAAAAAAAAAAAAAAAAAAAAAAAAAAAAAAAAAAAAAAAAAAAAAAAAAAAAAAAAAAAAAAAAAAAAAAAAAAAAAAAAAAAAAAAAAAAAAAAAAAAAAAAAAAAAAAAAAAAAAAAAAAAAAAAAAAAAAAAAAAAAAAAAAAAAAAAAAAAAAAAAAAAAAAAAAAAAAAAAAAAAAAAAAAAAAAAAAAAAAAAAAAAAAAAAAAAAAAAAAAAAAAAAAAAAAAAAAAAAAAAAAAAAAAAAAAAAAAAAAAAAAAAAAAAAAAAAAAAAAAAAAAAAAAAAAAAAAAAAAAAAAAAAAAAAAAAAAAAAAAAAAAAAAAAAAAAAAAAAAAAAAAAAAAAAAAAAAAAAAAAAAAAAAAAAAAAAAAAAAAAAAAAAAAAAAAAAAAAAAAAAAAAAAAAAAAAAAAAAAAAAAAAAAAAAAAAAAAAAAAAAAAAAAAAAAAAAAAAAAAAAAAAAAAAAAAAAAAAAAAAAAAAAAAAAAAAAAAAAAAAAAAAAAAAAAAAAAAAAAAAAAAAAAAAAAAAAAAAAAAAAAAAAAAAAAAAAAAAAAAAAAAAAAAAAAAAAAAAAAAAAAAAAAAAAAAAAAAAAAAAAAAAAAAAAAAAAAAAAAAAAAAAAAAAAAAAAAAAAAAAAAAAAAAAAAAAAAAAAAAAAAAAAAAAAAAAAAAAAAAAAAAAAAAAAAAAAAAAAAAAAAAAAAAAAAAAAAAAAAAAAAAAAAAAAAAAAAAAAAAAAAAAAAAAAAAAAAAAAAAAAAAAAAAAAAAAAAAAAAAAAAAAAAAAAAAAAAAAAAAAAAAAAAAAAAAAAAAAAAAAAAAAAAAAAAAAAAAAAAAAAAAAAAAAAAAAAAAAAAAAAAAAAAAAAAAAAAAAAAAAAAAAAAAAAAAAAAAAAAAAAAAAAAAAAAAAAAAAAAAAAAAAAAAAAAAAAAAAAAAAAAAAAAAAAAAAAAAAAAAAAAAAAAAAAAAAAAAAAAAAAAAAAAAAAAAAAAAAAAAAAAAAAAAAAAAAAAAAAAAAAAAAAAAAAAAAAAAAAAAAAAAAAAAAAAAAAAAAAAAAAAAAAAAAAAAAAAAAAAAAAAAAAAAAAAAAAAAAAAAAAAAAAAAAAAAAAAAAAAAAAAAAAAAAAAAAAAAAAAAAAAAAAAAAAAAAAAAAAAAAAAAAAAAAAAAAAAAAAAAAAAAAAAAAAAAAAAAAAAAAAAAAAAAAAAAAAAAAAAAAAAAAAAAAAAAAAAAAAAAAAAAAAAAAAAAAAAAAAAAAAAAAAAAAAAAAAAAAAAAAAAAAAAAAAAAAAAAAAAAAAAAAAAAAAAAAAAAAAAAAAAAAAAAAAAAAAAAAAAAAAAAAAAAAAAAAAAAAAAAAAAAAAAAAAAAAAAAAAAAAAAAAAAAAAAAAAAAAAAAAAAAAAAAAAAAAAAAAAAAAAAAAAAAAAAAAAAAAAAAAAAAAAAAAAAAAAAAAAAAAAAAAAAAAAAAAAAAAAAAAAAAAAAAAAAAAAAAAAAAAAAAAAAAAAAAAAAAAAAAAAAAAAAAAAAAAAAAAAAAAAAAAAAAAAAAAAAAAAAAAAAAAAAAAAAAAAAAAAAAAAAAAAAAAAAAAAAAAAAAAAAAAAAAAAAAAAAAAAAAAAAAAAAAAAAAAAAAAAAAAAAAAAAAAAAAAAAAAAAAAAAAAAAAAAAAAAAAAAAAAAAAAAAAAAAAAAAAAAAAAAAAAAAAAAAAAAAAAAAAAAAAAAAAAAAAAAAAAAAAAAAAAAAAAAAAAAAAAAAAAAAAAAAAAAAAAAAAAAAAAAAAAAAAAAAAAAAAAAAAAAAAAAAAAAAAAAAAAAAAAAAAAAAAAAAAAAAAAAAAAAAAAAAAAAAAAAAAAAAAAAAAAAAAAAAAAAAAAAAAAAAAAAAAAAAAAAAAAAAAAAAAAAAAAAAAAAAAAAAAAAAAAAAAAAAAAAAAAAAAAAAAAAAAAAAAAAAAAAAAAAAAAAAAAAAAAAAAAAAAAAAAAAAAAAAAAAAAAAAAAAAAAAAAAAAAAAAAAAAAAAAAAAAAAAAAAAAAAAAAAAAAAAAAAAAAAAAAAAAAAAAAAAAAAAAAAAAAAAAAAAAAAAAAAAAAAAAAAAAAAAAAAAAAAAAAAAAAAAAAAAAAAAAAAAAAAAAAAAAAAAAAAAAAAAAAAAAAAAAAAAAAAAAAAAAAAAAAAAAAAAAAAAAAAAAAAAAAAAAAAAAAAAAAAAAAAAAAAAAAAAAAAAAAAAAAAAAAAAAAAAAAAAAAAAAAAAAAAAAAAAAAAAAAAAAAAAAAAAAAAAAAAAAAAAAAAAAAAAAAAAAAAAAAAAAAAAAAAAAAAAAAAAAAAAAAAAAAAAAAAAAAAAAAAAAAAAAAAAAAAAAAAAAAAAAAAAAAAAAAAAAAAAAAAAAAAAAAAAAAAAAAAAAAAAAAAAAAAAAAAAAAAAAAAAAAAAAAAAAAAAAAAAAAAAAAAAAAAAAAAAAAAAAAAAAAAAAAAAAAAAAAAAAAAAAAAAAAAAAAAAAAAAAAAAAAAAAAAAAAAAAAAAAAAAAAAAAAAAAAAAAAAAAAAAAAAAAAAAAAAAAAAAAAAAAAAAAAAAAAAAAAAAAAAAAAAAAAAAAAAAAAAAAAAAAAAAAAAAAAAAAAAAAAAAAAAAAAAAAAAAAAAAAAAAAAAAAAAAAAAAAAAAAAAAAAAAAAAAAAAAAAAAAAAAAAAAAAAAAAAAAAAAAAAAAAAAAAAAAAAAAAAAAAAAAAAAAAAAAAAAAAAAAAAAAAAAAAAAAAAAAAAAAAAAAAAAAAAAAAAAAAAAAAAAPZYQNCuzDIgsJLEv3L0oWmJMoZdBuhSaebLoEUvkxrD16GtCrmGaFPasqTwOY4vXONQR2yREbk3ZuIz1R/vUg2maYQ=</c2pa:manifest></metadata>
<path d="M4.44673 20.514V13.858L0.000726564 1.92398H2.23673L5.51273 11.128L9.28273 -2.38419e-05H11.3367L6.50073 13.936V20.514H4.44673Z" fill="#FF0000"/>
<path d="M15.3986 13.676H15.1646C14.5406 13.676 14.0293 13.7453 13.6306 13.884C13.232 14.0053 12.92 14.196 12.6946 14.456C12.4693 14.6986 12.3133 14.9933 12.2266 15.34C12.14 15.6866 12.0966 16.068 12.0966 16.484C12.0966 17.2466 12.218 17.8533 12.4606 18.304C12.7206 18.7546 13.1106 18.98 13.6306 18.98C13.9773 18.98 14.3066 18.8846 14.6186 18.694C14.948 18.486 15.208 18.2346 15.3986 17.94V13.676ZM17.4006 17.55C17.4006 18.174 17.4266 18.746 17.4786 19.266C17.5306 19.786 17.5826 20.202 17.6346 20.514H15.9186C15.884 20.3753 15.8493 20.2106 15.8146 20.02C15.78 19.8293 15.754 19.6473 15.7366 19.474H15.6066C15.312 19.838 14.974 20.1326 14.5926 20.358C14.2113 20.5833 13.7346 20.696 13.1626 20.696C12.2266 20.696 11.464 20.358 10.8746 19.682C10.3026 19.006 10.0166 18.018 10.0166 16.718C10.0166 16.0246 10.112 15.392 10.3026 14.82C10.4933 14.248 10.788 13.7713 11.1866 13.39C11.6026 12.9913 12.1313 12.688 12.7726 12.48C13.414 12.2546 14.194 12.142 15.1126 12.142H15.3986V11.362C15.3986 10.4953 15.2513 9.87131 14.9566 9.48998C14.6793 9.10864 14.2546 8.91798 13.6826 8.91798C13.1626 8.91798 12.686 9.03931 12.2526 9.28198C11.8193 9.50731 11.4293 9.76731 11.0826 10.062L10.6926 8.26798C10.9873 8.02531 11.412 7.79131 11.9666 7.56598C12.5386 7.34064 13.154 7.22798 13.8126 7.22798C14.3846 7.22798 14.896 7.29731 15.3466 7.43598C15.7973 7.57464 16.17 7.80864 16.4646 8.13798C16.7766 8.44998 17.0106 8.87464 17.1666 9.41198C17.3226 9.93198 17.4006 10.5906 17.4006 11.388V17.55ZM21.9506 20.514H19.9226V7.38398H21.9506V8.52798H22.0806C22.1673 8.40664 22.2886 8.26798 22.4446 8.11198C22.618 7.95598 22.8173 7.81731 23.0426 7.69598C23.268 7.55731 23.5106 7.44464 23.7706 7.35798C24.048 7.27131 24.3426 7.22798 24.6546 7.22798C26.4053 7.22798 27.2806 8.21598 27.2806 10.192V20.514H25.2266V10.374C25.2266 9.87131 25.1226 9.52464 24.9146 9.33398C24.7066 9.14331 24.4033 9.04798 24.0046 9.04798C23.5713 9.04798 23.1813 9.18664 22.8346 9.46398C22.488 9.72398 22.1933 10.0186 21.9506 10.348V20.514ZM33.2606 20.696C31.9606 20.696 30.9726 20.1673 30.2966 19.11C29.6206 18.0526 29.2826 16.5013 29.2826 14.456C29.2826 12.0293 29.69 10.218 30.5046 9.02198C31.3366 7.82598 32.4113 7.22798 33.7286 7.22798C34.0406 7.22798 34.344 7.27998 34.6386 7.38398C34.9506 7.47064 35.202 7.58331 35.3926 7.72198V1.92398H37.4206V20.514H35.9126L35.7566 19.474H35.6266C35.332 19.838 34.994 20.1326 34.6126 20.358C34.2486 20.5833 33.798 20.696 33.2606 20.696ZM35.3926 9.51598C35.1846 9.30798 34.9593 9.15198 34.7166 9.04798C34.4913 8.94398 34.2053 8.89198 33.8586 8.89198C33.4426 8.89198 33.0786 9.03931 32.7666 9.33398C32.472 9.61131 32.2206 9.99264 32.0126 10.478C31.822 10.946 31.6746 11.492 31.5706 12.116C31.484 12.7226 31.4406 13.364 31.4406 14.04C31.4406 15.5826 31.5966 16.796 31.9086 17.68C32.2206 18.5466 32.7493 18.98 33.4946 18.98C33.9973 18.98 34.396 18.876 34.6906 18.668C34.9853 18.46 35.2193 18.226 35.3926 17.966V9.51598ZM46.9626 19.63C46.5466 19.9593 46.0786 20.2193 45.5586 20.41C45.056 20.6006 44.4753 20.696 43.8166 20.696C42.4646 20.696 41.3986 20.176 40.6186 19.136C39.8386 18.0786 39.4486 16.536 39.4486 14.508C39.4486 13.4506 39.518 12.48 39.6566 11.596C39.8126 10.712 40.0466 9.94931 40.3586 9.30798C40.688 8.64931 41.104 8.13798 41.6066 7.77398C42.1093 7.40998 42.7073 7.22798 43.4006 7.22798C43.938 7.22798 44.432 7.34064 44.8826 7.56598C45.3333 7.77398 45.7146 8.12064 46.0266 8.60598C46.3386 9.09131 46.5813 9.72398 46.7546 10.504C46.928 11.2666 47.0146 12.2026 47.0146 13.312V14.43H41.5546C41.5546 15.9206 41.754 17.0473 42.1526 17.81C42.5686 18.5726 43.184 18.954 43.9986 18.954C44.5706 18.954 45.0646 18.8586 45.4806 18.668C45.8966 18.46 46.2346 18.2606 46.4946 18.07L46.9626 19.63ZM43.4006 8.89198C42.7766 8.89198 42.3346 9.24731 42.0746 9.95798C41.8146 10.6513 41.65 11.5873 41.5806 12.766H44.9346C44.9346 12.2113 44.9086 11.7 44.8566 11.232C44.8046 10.7466 44.718 10.3306 44.5966 9.98398C44.4926 9.63731 44.3366 9.36864 44.1286 9.17798C43.938 8.98731 43.6953 8.89198 43.4006 8.89198ZM55.8286 7.40998L53.3846 13.546L56.1146 20.514H54.0086L51.9806 15.106L50.0046 20.514H48.0026L50.7326 13.728L48.2626 7.40998H50.3686L52.0586 12.168L53.8526 7.40998H55.8286Z" fill="#18232E"/>
</svg>
